PathFileType	4	(X/Y/Z)	\\147.46.242.158\로컬 디스크 (e)\MOCAP Data\Iguana Capture\iguana\Project 2\Capture day 6 after broken\Session 1\Take06.trc
DataRate	CameraRate	NumFrames	NumMarkers	Units	OrigDataRate	OrigDataStartFrame	OrigNumFrames
120.0	120.0	8	23	mm	120.0	1	8064
Frame#	Time	ana:head1			ana:head2			ana:bone1			ana:bone2			ana:bone3			ana:tail1			ana:tail2			ana:tail3			ana:tail4			ana:Rforefoot1			ana:Rforefoot2			ana:Rforefoot3			ana:Lforefoot1			ana:Lforefoot2			ana:Lforefoot3			ana:RhindLeg1			ana:RhindLeg2			ana:RhindLeg3			ana:RhindLeg4			ana:LhindLeg1			ana:LhindLeg2			ana:LhindLeg3			ana:LhindLeg4			
		X1	Y1	Z1	X2	Y2	Z2	X3	Y3	Z3	X4	Y4	Z4	X5	Y5	Z5	X6	Y6	Z6	X7	Y7	Z7	X8	Y8	Z8	X9	Y9	Z9	X10	Y10	Z10	X11	Y11	Z11	X12	Y12	Z12	X13	Y13	Z13	X14	Y14	Z14	X15	Y15	Z15	X16	Y16	Z16	X17	Y17	Z17	X18	Y18	Z18	X19	Y19	Z19	X20	Y20	Z20	X21	Y21	Z21	X22	Y22	Z22	X23	Y23	Z23	

5956	49.625	83.86629	-392.62900	40.76933	92.43281	-388.12296	43.42083	110.59962	-373.94501	39.10876	136.64215	-358.21796	36.11916	161.93228	-339.91965	20.39836	182.35832	-317.11359	13.62298	193.56126	-279.58640	10.61610	192.29295	-240.95671	7.79998	184.75340	-207.49799	7.81129	101.05076	-366.70148	22.18273	106.97243	-352.50519	15.66051	94.59119	-360.97159	5.70635	114.37392	-385.09485	16.97076	124.74914	-382.43719	9.78481	108.37997	-380.59103	7.08986	153.42981	-335.13861	16.88981	138.62511	-334.85587	22.17716	147.71646	-325.06024	7.34646	136.36302	-325.15198	6.37431	168.75417	-348.33426	15.18969	172.67958	-365.11063	19.05134	187.47328	-362.46249	6.31244	185.68291	-374.19611	6.12723	
5957	49.633	84.27740	-392.45831	40.82094	92.68691	-388.28302	43.73763	110.73708	-374.22980	39.62377	137.00983	-358.14532	36.71423	162.12802	-339.88455	20.83121	182.38939	-316.98648	13.62651	193.57175	-279.57242	10.58411	192.31470	-240.93269	7.79852	184.73424	-207.47632	7.79133	101.07755	-366.71262	23.03015	106.17751	-352.98169	16.31819	94.61891	-361.01563	5.68785	114.02978	-384.83243	17.20196	124.97661	-382.65811	10.01915	108.35976	-380.78809	6.56949	153.25264	-335.34009	17.07505	137.97322	-335.04727	21.69115	147.79567	-324.97101	7.34038	136.37796	-325.15811	6.30468	168.86829	-348.44348	15.64111	172.79205	-365.01260	19.20032	187.50746	-362.48563	6.32617	185.72900	-374.22211	6.10983	
5958	49.642	84.58250	-392.65775	41.07394	92.94036	-388.44659	44.02057	110.99129	-374.22894	40.00138	136.92137	-357.90500	37.10330	162.02109	-339.91617	21.23370	182.38197	-317.03571	13.72042	193.60957	-279.55289	10.55824	192.34525	-240.93202	7.79093	184.73204	-207.46927	7.76861	101.03578	-366.86530	23.46043	105.85704	-353.27472	16.59083	94.65041	-361.04031	5.67433	113.82269	-384.62006	17.61568	125.08773	-382.90182	10.24376	108.51213	-380.87418	6.57353	153.06735	-335.33081	17.00912	137.53049	-334.85477	21.28717	147.44897	-325.30048	7.42462	136.22076	-325.22379	6.41232	168.87959	-348.51501	16.00593	172.92943	-364.91022	19.38564	187.52646	-362.48517	6.30283	185.74832	-374.27075	6.08060	
5959	49.650	84.84023	-393.36203	41.82949	93.25564	-388.53082	44.30669	111.28746	-374.12762	40.30058	136.35732	-357.53763	37.68611	161.91953	-339.88464	21.59095	182.33711	-317.24222	13.90042	193.65169	-279.51660	10.54784	192.34836	-240.91231	7.79927	184.79829	-207.42662	7.77524	100.97951	-367.13419	23.59659	105.85630	-353.41476	16.65983	94.65224	-361.05353	5.68263	114.17071	-384.71628	17.55672	125.15543	-383.04977	10.34872	108.76617	-380.67929	6.31134	153.08698	-335.15115	17.19092	137.45848	-334.37210	21.57625	146.50356	-326.21899	7.56451	135.83075	-325.36237	6.70799	168.92043	-348.39304	16.19823	173.08955	-364.76102	19.54779	187.53781	-362.48129	6.28029	185.76997	-374.39337	6.13197	
5960	49.658	85.11808	-393.58917	42.43041	93.56251	-388.62003	44.71451	111.71663	-373.89978	40.52912	136.21649	-357.77423	38.30877	162.03055	-339.75238	21.95606	182.36487	-317.30798	13.99838	193.70854	-279.49222	10.54542	192.35881	-240.87549	7.82221	184.85097	-207.46570	7.83901	101.17768	-367.23087	23.96308	105.81512	-353.55057	16.82522	94.52690	-361.24426	5.85628	114.38807	-384.84555	17.91481	125.21521	-383.18256	10.44648	109.37936	-380.02808	5.57698	153.13437	-334.98007	17.63240	137.55809	-334.30603	21.86606	146.10321	-326.57486	7.64025	135.68031	-325.38010	6.78585	168.98695	-348.28329	16.36827	173.32162	-364.60757	19.72019	187.61209	-362.49936	6.30458	185.85538	-374.74536	6.31994	
5961	49.667	85.41393	-393.61105	42.91898	93.73044	-388.75128	45.29041	111.92002	-373.98935	40.90837	136.74745	-358.18680	38.53400	162.13060	-339.62637	22.13232	182.42596	-317.31564	14.07150	193.75017	-279.47122	10.53862	192.39014	-240.87714	7.80864	184.84059	-207.41586	7.76284	101.47422	-367.15659	24.41980	105.74441	-353.72620	17.07104	94.29285	-361.54666	6.18532	114.29044	-384.74573	18.70538	125.25211	-383.27853	10.50052	109.55756	-379.82333	5.32175	152.77237	-335.39154	17.79414	137.50656	-334.31131	21.73494	145.99606	-326.20792	7.67220	135.64288	-325.33142	6.76330	169.03757	-348.19989	16.59625	173.53928	-364.46286	19.86535	187.75844	-362.55301	6.36520	186.00504	-374.89020	6.22626	
5962	49.675	85.69328	-393.53372	43.19704	93.74413	-388.85785	45.80286	111.93786	-374.34430	41.52925	137.24426	-358.14642	38.92226	162.17949	-339.41556	22.24385	182.48154	-317.28049	14.12087	193.79483	-279.46722	10.53531	192.41081	-240.85255	7.83173	184.82967	-207.36250	7.73957	101.78429	-367.13708	24.71034	105.56339	-353.90286	17.38148	94.48871	-361.30692	5.95194	114.39484	-384.63214	19.04046	125.17485	-383.11386	10.27502	109.54433	-379.83279	5.32689	152.59662	-335.48792	17.83214	137.50119	-334.05893	21.70414	145.68546	-325.46143	7.74795	135.63663	-325.26102	6.74452	169.15961	-348.11877	16.89369	173.66664	-364.43637	19.92821	187.70561	-362.47086	6.25144	186.03937	-374.90549	6.06754	
5963	49.683	85.93060	-393.10666	43.11018	93.95204	-389.02213	46.13552	112.04964	-374.59296	42.18079	137.63892	-357.98322	39.33865	162.23311	-339.02859	22.31641	182.52287	-317.23648	14.16685	193.84550	-279.46884	10.54491	192.43593	-240.83702	7.84100	184.87848	-207.24962	7.78495	102.06381	-367.21982	24.85196	105.40565	-354.01480	17.59614	94.54001	-361.23785	5.91624	114.63927	-384.65579	19.09056	124.84561	-382.65628	9.73220	109.53171	-379.79346	5.40778	152.48459	-335.33087	17.85018	137.68570	-333.53583	21.98220	144.44060	-324.68317	8.61915	135.98094	-325.06003	6.29104	169.24551	-348.00391	17.10151	173.84422	-364.45264	20.11221	187.69496	-362.47354	6.20817	186.05550	-374.91489	5.99462	
